<?xml version="1.0" encoding="UTF-8"?>
<svg width="24px" height="32px" viewBox="0 0 24 32" version="1.1" xmlns="http://www.w3.org/2000/svg" xmlns:xlink="http://www.w3.org/1999/xlink">
    <!-- Generator: Sketch 53.2 (72643) - https://sketchapp.com -->
    <title>Group 2</title>
    <desc>Created with Sketch.</desc>
    <defs>
        <polygon id="path-1" points="0 0.352897561 23.7632842 0.352897561 23.7632842 32 0 32"></polygon>
    </defs>
    <g id="Page-1" stroke="none" stroke-width="1" fill="none" fill-rule="evenodd">
        <g id="Artboard-Copy-9" transform="translate(-639.000000, -626.000000)">
            <g id="Group-7" transform="translate(585.000000, 626.000000)">
                <g id="Group-5">
                    <g id="Group-2" transform="translate(54.000000, 0.000000)">
                        <g id="Group-3">
                            <mask id="mask-2" fill="white">
                                <use xlink:href="#path-1"></use>
                            </mask>
                            <g id="Clip-2"></g>
                            <path d="M11.8816,2.30411707 C6.49086316,2.30411707 2.10517895,6.36889756 2.10517895,11.3651902 L2.10517895,20.9878244 C2.10517895,25.9841171 6.49086316,30.0488976 11.8816,30.0488976 C17.2723368,30.0488976 21.6580211,25.9841171 21.6580211,20.9878244 L21.6580211,11.3651902 C21.6580211,6.36889756 17.2723368,2.30411707 11.8816,2.30411707 M11.8816,32.0001171 C5.33002105,32.0001171 -8.42105263e-05,27.0600195 -8.42105263e-05,20.9878244 L-8.42105263e-05,11.3651902 C-8.42105263e-05,5.29299512 5.33002105,0.352897561 11.8816,0.352897561 C18.4331789,0.352897561 23.7632842,5.29299512 23.7632842,11.3651902 L23.7632842,20.9878244 C23.7632842,27.0600195 18.4331789,32.0001171 11.8816,32.0001171" id="Fill-1" fill="#FEFEFE" mask="url(#mask-2)"></path>
                        </g>
                        <path d="M12,13 C11.4476,13 11,12.5204286 11,11.9285714 L11,8.07142857 C11,7.47957143 11.4476,7 12,7 C12.5524,7 13,7.47957143 13,8.07142857 L13,11.9285714 C13,12.5204286 12.5524,13 12,13" id="Fill-4" fill="#FEFEFE"></path>
                    </g>
                </g>
            </g>
        </g>
    </g>
</svg>