<?xml version="1.0" encoding="utf-8"?>
<!-- Generator: Adobe Illustrator 24.1.2, SVG Export Plug-In . SVG Version: 6.00 Build 0)  -->
<svg version="1.1" id="Camada_1" xmlns="http://www.w3.org/2000/svg" xmlns:xlink="http://www.w3.org/1999/xlink" x="0px" y="0px"
	 viewBox="0 0 190 95" style="enable-background:new 0 0 190 95;" xml:space="preserve">
<style type="text/css">
	.st0{fill:#FFE876;}
	.st1{fill:#FFB93A;}
	.st2{fill:#BFB4A3;}
	.st3{fill:#FFFFFF;}
</style>
<g>
	<desc>Created with Sketch.</desc>
	<g>
		<path class="st0" d="M66.2,32.1c-7.4,0-13.4,6-13.4,13.4c0,7.4,6,13.4,13.4,13.4c7.4,0,13.4-6,13.4-13.4
			C79.6,38.1,73.6,32.1,66.2,32.1z M72.4,45.5c0,3.4-2.8,6.2-6.2,6.2c-3.4,0-6.2-2.8-6.2-6.2c0-3.4,2.8-6.2,6.2-6.2
			C69.6,39.2,72.4,42,72.4,45.5z"/>
		<path class="st0" d="M123.1,32.1c-7.4,0-13.4,6-13.4,13.4c0,7.4,6,13.4,13.4,13.4s13.4-6,13.4-13.4
			C136.5,38.1,130.5,32.1,123.1,32.1z M123.1,51.7c-3.4,0-6.2-2.8-6.2-6.2c0-3.4,2.8-6.2,6.2-6.2c3.4,0,6.2,2.8,6.2,6.2
			C129.3,48.9,126.5,51.7,123.1,51.7z"/>
		<path class="st0" d="M95.1,33c-2.3,0-4.5,0.6-6.3,1.7c-0.6-1.1-1.8-1.9-3.2-1.9c-2,0-3.6,1.6-3.6,3.6v32.9c0,2,1.6,3.6,3.6,3.6
			s3.6-1.6,3.6-3.6V57.4c1.8,0.9,3.8,1.4,5.9,1.4c7.1,0,12.9-5.8,12.9-12.9C108.1,38.8,102.3,33,95.1,33z M95.1,51.6
			c-3.2,0-5.7-2.6-5.7-5.7c0-3.2,2.6-5.7,5.7-5.7c3.2,0,5.7,2.6,5.7,5.7C100.9,49.1,98.3,51.6,95.1,51.6z"/>
		<path class="st0" d="M48.7,29.8h-2.3v-3c0-2-1.6-3.6-3.6-3.6c-2,0-3.6,1.6-3.6,3.6v3h-2.1c-2,0-3.6,1.6-3.6,3.6
			c0,2,1.6,3.6,3.6,3.6h2.1v16c0,4.5,3.7,8.2,8.2,8.2c2,0,3.6-1.6,3.6-3.6c0-2-1.6-3.6-3.6-3.6c-0.5,0-1-0.4-1-1V37h2.3
			c2,0,3.6-1.6,3.6-3.6C52.3,31.4,50.7,29.8,48.7,29.8z"/>
		<path class="st0" d="M20.8,39.8l-3.2-0.5l-0.1,0c-4-0.6-6.4-2.9-6.4-6.4c0-4.1,4.2-4.5,6-4.5c2.3,0,4.4,1.1,5.6,2.8
			c1.2,1.8,3.7,2.3,5.5,1.1c1.8-1.2,2.3-3.7,1.1-5.5c-2.7-3.9-7.2-6.3-12.1-6.3c-3.8,0-7.1,1.1-9.6,3.1c-2.7,2.2-4.3,5.5-4.3,9.3
			c0,7.4,5.3,13.1,13.1,14.2l3.7,0.6l0.4,0c4.4,0,8,3.2,8,7.1c0,3.9-3.6,7.1-8,7.1c-3.7,0-8.8-3.3-9.9-5.7c-0.4-1-1.2-1.7-2.2-2.1
			c-1-0.4-2-0.4-3,0.1c-2,0.9-2.9,3.2-2,5.2c1.6,3.6,5.1,6.2,7.1,7.3c3.3,2,6.9,3.1,10,3.1c8.7,0,15.9-6.7,15.9-14.9
			C36.3,46.6,29.3,40,20.8,39.8z"/>
		<path class="st0" d="M154.7,33.4c0-2-1.6-3.6-3.6-3.6h-2.1v-3c0-2-1.6-3.6-3.6-3.6c-2,0-3.6,1.6-3.6,3.6v3h-2.3
			c-2,0-3.6,1.6-3.6,3.6c0,2,1.6,3.6,3.6,3.6h2.3v16c0,0.5-0.4,1-1,1c-2,0-3.6,1.6-3.6,3.6c0,2,1.6,3.6,3.6,3.6
			c4.5,0,8.2-3.7,8.2-8.2V37h2.1C153.1,37,154.7,35.3,154.7,33.4z"/>
		<path class="st0" d="M184,54.1c-2-0.9-4.3,0-5.2,2c-1.1,2.4-6.2,5.7-9.9,5.7c-4.4,0-8-3.2-8-7.1c0-3.9,3.6-7.1,8-7.1h0.2L173,47
			c7.8-1.1,13.1-6.8,13.1-14.2c0-3.7-1.5-7-4.3-9.3c-2.5-2-5.8-3.1-9.6-3.1c-4.9,0-9.5,2.3-12.1,6.3c-0.6,0.9-0.8,1.9-0.6,2.9
			c0.2,1,0.8,1.9,1.7,2.5c1.8,1.2,4.2,0.7,5.5-1.1c1.2-1.8,3.3-2.8,5.6-2.8c1.8,0,6,0.4,6,4.5c0,3.5-2.4,5.9-6.4,6.4l-3.3,0.5
			c-8.6,0.2-15.5,6.9-15.5,14.9c0,8.2,7.1,14.9,15.9,14.9c3.1,0,6.7-1.1,10-3.1c2-1.2,5.5-3.7,7.1-7.3C186.9,57.2,186,54.9,184,54.1
			z"/>
		<path class="st1" d="M66.2,33.1c-7.4,0-13.4,6-13.4,13.4c0,7.4,6,13.4,13.4,13.4c7.4,0,13.4-6,13.4-13.4
			C79.6,39.2,73.6,33.1,66.2,33.1z M72.4,46.5c0,3.4-2.8,6.2-6.2,6.2c-3.4,0-6.2-2.8-6.2-6.2c0-3.4,2.8-6.2,6.2-6.2
			C69.6,40.3,72.4,43.1,72.4,46.5z"/>
		<path class="st1" d="M123.1,33.1c-7.4,0-13.4,6-13.4,13.4c0,7.4,6,13.4,13.4,13.4s13.4-6,13.4-13.4
			C136.5,39.2,130.5,33.1,123.1,33.1z M123.1,52.8c-3.4,0-6.2-2.8-6.2-6.2c0-3.4,2.8-6.2,6.2-6.2c3.4,0,6.2,2.8,6.2,6.2
			C129.3,50,126.5,52.8,123.1,52.8z"/>
		<path class="st1" d="M95.1,34.1c-2.3,0-4.5,0.6-6.3,1.7c-0.6-1.1-1.8-1.9-3.2-1.9c-2,0-3.6,1.6-3.6,3.6v32.9c0,2,1.6,3.6,3.6,3.6
			s3.6-1.6,3.6-3.6V58.5c1.8,0.9,3.8,1.4,5.9,1.4c7.1,0,12.9-5.8,12.9-12.9C108.1,39.9,102.3,34.1,95.1,34.1z M95.1,52.7
			c-3.2,0-5.7-2.6-5.7-5.7c0-3.2,2.6-5.7,5.7-5.7c3.2,0,5.7,2.6,5.7,5.7C100.9,50.2,98.3,52.7,95.1,52.7z"/>
		<path class="st1" d="M48.7,30.8h-2.3v-3c0-2-1.6-3.6-3.6-3.6c-2,0-3.6,1.6-3.6,3.6v3h-2.1c-2,0-3.6,1.6-3.6,3.6s1.6,3.6,3.6,3.6
			h2.1v16c0,4.5,3.7,8.2,8.2,8.2c2,0,3.6-1.6,3.6-3.6c0-2-1.6-3.6-3.6-3.6c-0.5,0-1-0.4-1-1V38h2.3c2,0,3.6-1.6,3.6-3.6
			S50.7,30.8,48.7,30.8z"/>
		<path class="st1" d="M20.8,40.9l-3.2-0.5l-0.1,0c-4-0.6-6.4-2.9-6.4-6.4c0-4.1,4.2-4.5,6-4.5c2.3,0,4.4,1.1,5.6,2.8
			c1.2,1.8,3.7,2.3,5.5,1.1c1.8-1.2,2.3-3.7,1.1-5.5c-2.7-3.9-7.2-6.3-12.1-6.3c-3.8,0-7.1,1.1-9.6,3.1c-2.7,2.2-4.3,5.5-4.3,9.3
			c0,7.4,5.3,13.1,13.1,14.2l3.7,0.6l0.4,0c4.4,0,8,3.2,8,7.1c0,3.9-3.6,7.1-8,7.1c-3.7,0-8.8-3.3-9.9-5.7c-0.4-1-1.2-1.7-2.2-2.1
			c-1-0.4-2-0.4-3,0.1c-2,0.9-2.9,3.2-2,5.2c1.6,3.6,5.1,6.2,7.1,7.3c3.3,2,6.9,3.1,10,3.1c8.7,0,15.9-6.7,15.9-14.9
			C36.3,47.7,29.3,41,20.8,40.9z"/>
		<g>
			<g>
				<path class="st2" d="M121.5,72.1c-0.3-0.2-0.6-0.3-1-0.3c-0.4,0-0.7,0.2-0.9,0.5l-1.9,2.3c-0.5,0.6-0.4,1.4,0.2,1.9l6.1,5
					c0.2,0.2,0.5,0.3,0.9,0.3c0,0,0.1,0,0.1,0c0.4,0,0.7-0.2,0.9-0.5l1.9-2.3c0.5-0.6,0.4-1.4-0.2-1.9L121.5,72.1z"/>
				<path class="st2" d="M67,72c-0.5-0.6-1.4-0.6-1.9-0.1l-5.9,5.4c-0.3,0.2-0.4,0.6-0.4,0.9c0,0.4,0.1,0.7,0.3,1l2,2.2
					c0.3,0.3,0.6,0.4,1,0.4c0.3,0,0.6-0.1,0.9-0.3l5.9-5.4c0.3-0.2,0.4-0.6,0.4-0.9c0-0.4-0.1-0.7-0.3-1L67,72z"/>
				<path class="st2" d="M95.4,76.9h-3c-0.7,0-1.3,0.6-1.3,1.3v12.9c0,0.7,0.6,1.3,1.3,1.3h3c0.7,0,1.3-0.6,1.3-1.3V78.3
					C96.8,77.5,96.2,76.9,95.4,76.9z"/>
			</g>
			<path class="st3" d="M122.6,73c-0.3-0.2-0.6-0.3-1-0.3c-0.4,0-0.7,0.2-0.9,0.5l-1.9,2.3c-0.5,0.6-0.4,1.4,0.2,1.9l6.1,5
				c0.2,0.2,0.5,0.3,0.9,0.3c0,0,0.1,0,0.1,0c0.4,0,0.7-0.2,0.9-0.5l1.9-2.3c0.5-0.6,0.4-1.4-0.2-1.9L122.6,73z"/>
			<path class="st3" d="M66.1,72.9c-0.5-0.6-1.4-0.6-1.9-0.1l-5.9,5.4c-0.3,0.2-0.4,0.6-0.4,0.9c0,0.4,0.1,0.7,0.3,1l2,2.2
				c0.3,0.3,0.6,0.4,1,0.4c0.3,0,0.6-0.1,0.9-0.3L68,77c0.3-0.2,0.4-0.6,0.4-0.9c0-0.4-0.1-0.7-0.3-1L66.1,72.9z"/>
			<path class="st3" d="M95.4,78.2h-3c-0.7,0-1.3,0.6-1.3,1.3v12.9c0,0.7,0.6,1.3,1.3,1.3h3c0.7,0,1.3-0.6,1.3-1.3V79.6
				C96.8,78.8,96.2,78.2,95.4,78.2z"/>
		</g>
		<path class="st1" d="M154.7,34.4c0-2-1.6-3.6-3.6-3.6h-2.1v-3c0-2-1.6-3.6-3.6-3.6c-2,0-3.6,1.6-3.6,3.6v3h-2.3
			c-2,0-3.6,1.6-3.6,3.6s1.6,3.6,3.6,3.6h2.3v16c0,0.5-0.4,1-1,1c-2,0-3.6,1.6-3.6,3.6c0,2,1.6,3.6,3.6,3.6c4.5,0,8.2-3.7,8.2-8.2
			V38h2.1C153.1,38,154.7,36.4,154.7,34.4z"/>
		<path class="st1" d="M184,55.1c-2-0.9-4.3,0-5.2,2c-1.1,2.4-6.2,5.7-9.9,5.7c-4.4,0-8-3.2-8-7.1c0-3.9,3.6-7.1,8-7.1h0.2l3.8-0.6
			c7.8-1.1,13.1-6.8,13.1-14.2c0-3.7-1.5-7-4.3-9.3c-2.5-2-5.8-3.1-9.6-3.1c-4.9,0-9.5,2.3-12.1,6.3c-0.6,0.9-0.8,1.9-0.6,2.9
			c0.2,1,0.8,1.9,1.7,2.5c1.8,1.2,4.2,0.7,5.5-1.1c1.2-1.8,3.3-2.8,5.6-2.8c1.8,0,6,0.4,6,4.5c0,3.5-2.4,5.9-6.4,6.4l-3.3,0.5
			c-8.6,0.2-15.5,6.9-15.5,14.9c0,8.2,7.1,14.9,15.9,14.9c3.1,0,6.7-1.1,10-3.1c2-1.2,5.5-3.7,7.1-7.3C186.9,58.3,186,56,184,55.1z"
			/>
		<g>
			<g>
				<path class="st2" d="M121.7,22.7c-0.3,0.2-0.6,0.3-1,0.3c-0.4,0-0.7-0.2-0.9-0.5l-1.9-2.3c-0.5-0.6-0.4-1.4,0.2-1.9l6.1-5
					c0.2-0.2,0.5-0.3,0.9-0.3c0,0,0.1,0,0.1,0c0.4,0,0.7,0.2,0.9,0.5l1.9,2.3c0.5,0.6,0.4,1.4-0.2,1.9L121.7,22.7z"/>
				<path class="st2" d="M67.2,22.8c-0.5,0.6-1.4,0.6-1.9,0.1l-5.9-5.4c-0.3-0.2-0.4-0.6-0.4-0.9c0-0.4,0.1-0.7,0.3-1l2-2.2
					c0.3-0.3,0.6-0.4,1-0.4c0.3,0,0.6,0.1,0.9,0.3l5.9,5.4c0.3,0.2,0.4,0.6,0.4,0.9c0,0.4-0.1,0.7-0.3,1L67.2,22.8z"/>
				<path class="st2" d="M95.6,17.9h-3c-0.7,0-1.3-0.6-1.3-1.3V3.7c0-0.7,0.6-1.3,1.3-1.3h3c0.7,0,1.3,0.6,1.3,1.3v12.9
					C97,17.3,96.4,17.9,95.6,17.9z"/>
			</g>
			<path class="st3" d="M122.8,21.8c-0.3,0.2-0.6,0.3-1,0.3c-0.4,0-0.7-0.2-0.9-0.5l-1.9-2.3c-0.5-0.6-0.4-1.4,0.2-1.9l6.1-5
				c0.2-0.2,0.5-0.3,0.9-0.3c0,0,0.1,0,0.1,0c0.4,0,0.7,0.2,0.9,0.5l1.9,2.3c0.5,0.6,0.4,1.4-0.2,1.9L122.8,21.8z"/>
			<path class="st3" d="M66.3,21.9c-0.5,0.6-1.4,0.6-1.9,0.1l-5.9-5.4c-0.3-0.2-0.4-0.6-0.4-0.9c0-0.4,0.1-0.7,0.3-1l2-2.2
				c0.3-0.3,0.6-0.4,1-0.4c0.3,0,0.6,0.1,0.9,0.3l5.9,5.4c0.3,0.2,0.4,0.6,0.4,0.9c0,0.4-0.1,0.7-0.3,1L66.3,21.9z"/>
			<path class="st3" d="M95.6,16.6h-3c-0.7,0-1.3-0.6-1.3-1.3V2.4c0-0.7,0.6-1.3,1.3-1.3h3C96.4,1,97,1.6,97,2.4v12.9
				C97,16,96.4,16.6,95.6,16.6z"/>
		</g>
	</g>
</g>
</svg>
